<?xml version="1.0" encoding="utf-8"?>
<!-- Generator: Adobe Illustrator 24.1.2, SVG Export Plug-In . SVG Version: 6.00 Build 0)  -->
<svg version="1.1" id="Calque_1" xmlns="http://www.w3.org/2000/svg" xmlns:xlink="http://www.w3.org/1999/xlink" x="0px" y="0px"
	 viewBox="0 0 512 512" style="enable-background:new 0 0 512 512;" xml:space="preserve">
<style type="text/css">
	.st0{fill:#E6AD4A;}
	.st1{fill:url(#SVGID_1_);}
	.st2{fill:url(#SVGID_2_);}
	.st3{fill:#FFCF6E;}
	.st4{opacity:0.3;fill:#BF00C6;enable-background:new    ;}
	.st5{opacity:0.34;fill:url(#SVGID_3_);enable-background:new    ;}
	.st6{fill:url(#SVGID_4_);}
	.st7{opacity:0.5;fill:url(#SVGID_5_);enable-background:new    ;}
	.st8{fill:url(#SVGID_6_);}
	.st9{fill:url(#SVGID_7_);}
	.st10{opacity:0.45;fill:url(#SVGID_8_);enable-background:new    ;}
	.st11{fill:url(#SVGID_9_);}
	.st12{opacity:0.34;fill:url(#SVGID_10_);enable-background:new    ;}
	.st13{fill:url(#SVGID_11_);}
</style>
<g id="_x20AC_">
	<g>
		<path class="st0" d="M314.4,380.6c-29.7,16.8-76.7,26.8-126.8,26.8c-96.2,0-146.3-32.8-146.3-77.8c0-28.3,20.4-50.3,51.4-60.7
			c-24.4-10.8-38.1-30.5-38.1-54c0-41,44.3-77.1,139.7-77.1c40.8,0,80.7,7.1,109.1,18.6l-20,46.2c-28.4-11.2-57.2-16-86.5-16
			c-47.9,0-69.6,13.4-69.6,32.4c0,17.9,15.1,28.3,47.4,28.3h84.7V295h-89.1c-35.5,0-56.3,10.4-56.3,30.5c0,19.7,23.1,33.1,76.7,33.1
			c36.4,0,75.8-8.6,101.5-23.5L314.4,380.6z"/>
	</g>
</g>
<g id="escalier">
	<g>
		
			<linearGradient id="SVGID_1_" gradientUnits="userSpaceOnUse" x1="259.7213" y1="-8.444" x2="275.159" y2="183.9332" gradientTransform="matrix(1 0 0 -1 0 512)">
			<stop  offset="0" style="stop-color:#E6AD4A"/>
			<stop  offset="1" style="stop-color:#F6C673"/>
		</linearGradient>
		<path class="st1" d="M490,476.7l-452,1.1l1.3-36.7l16.3-1.8l17.2-1.4h0.1l56,1.3c0,0,0,0,0,0l79,1.8l154.1,3.5l46.2,1.1l3.3,0.1
			h0.2l0.6,0h0.1l42.4,0.9h0.1L488,451L490,476.7z"/>
		
			<linearGradient id="SVGID_2_" gradientUnits="userSpaceOnUse" x1="253.6975" y1="-51.5155" x2="289.2119" y2="385.2154" gradientTransform="matrix(1 0 0 -1 0 512)">
			<stop  offset="0" style="stop-color:#E6AD4A"/>
			<stop  offset="1" style="stop-color:#F6C673"/>
		</linearGradient>
		<path class="st2" d="M473.5,445.6l-111.3-1.2l-154,0.7l-79.8,0.3l-55.1,0.2l-17.7,0.1l0.2-8.1l0-2l0.6-28.7c0,0,0,0,0,0l13.8,0.2
			h0l164.9,2.5h0.2l192.5,3h0.1l34.1,0.6h0l11.3,0.1L473.5,445.6z"/>
		<path class="st3" d="M488.6,451.3l-33.4-0.8H455l-42.4-0.9h-0.1l-0.6,0h-0.2l-3.3-0.1l-46.2-1.1L208,444.9l-79-1.8c0,0,0,0,0,0
			L73,441.9h-0.1l-17.2-0.4l-16.3-0.4l16.3-1.8l109.2,1.8h0.6l69.8,1h0.2l192.9,2.8h0l0.1,0l45.4,0.7h0L488.6,451.3z"/>
	</g>
</g>
<path class="st4" d="M439.6,130.7l-345.2,2c0,0,5.1-4.3,13.6-11.4l318-1.8C434.5,126.4,439.6,130.7,439.6,130.7z"/>
<g>
	
		<linearGradient id="SVGID_3_" gradientUnits="userSpaceOnUse" x1="262.6658" y1="482.825" x2="263.71" y2="482.825" gradientTransform="matrix(1 0 0 -1 0 512)">
		<stop  offset="0" style="stop-color:#880041"/>
		<stop  offset="1" style="stop-color:#FD916A"/>
	</linearGradient>
	<polygon class="st5" points="263.7,19 263.7,19.2 263.4,39.3 263,39.3 263,39.3 262.7,39.3 263,19.2 263,19 263.4,19 	"/>
	
		<linearGradient id="SVGID_4_" gradientUnits="userSpaceOnUse" x1="267.0684" y1="343.4512" x2="256.6182" y2="495.3264" gradientTransform="matrix(1 0 0 -1 0 512)">
		<stop  offset="0" style="stop-color:#E6AD4A"/>
		<stop  offset="1" style="stop-color:#F6C673"/>
	</linearGradient>
	<polygon class="st6" points="466.5,122.5 430.1,122.7 396.4,122.9 369.2,123.1 347.1,123.2 281.8,123.6 181.9,124.1 179.1,124.2 
		169.3,124.2 104,124.6 94.7,124.6 87.2,124.7 86.7,124.7 80.5,124.8 61.5,124.8 62.9,124.1 70.4,120.2 73.2,118.7 79.5,115.4 
		80.1,115.1 125.6,91.3 126.2,90.9 126.3,90.9 179.2,63.1 179.6,62.9 184,60.6 184,60.6 184.6,60.3 188.1,58.5 263,19.2 263.4,19 
		263.7,19.2 282.1,28.6 319.1,47.4 319.2,47.5 367.1,71.9 367.6,72.1 367.8,72.2 371.5,74.1 449,113.6 452.5,115.4 458.6,118.5 
		464.2,121.3 	"/>
	
		<linearGradient id="SVGID_5_" gradientUnits="userSpaceOnUse" x1="267.9659" y1="471.5993" x2="273.0393" y2="368.8595" gradientTransform="matrix(1 6.400000e-03 6.400000e-03 -1 -7.0791 510.4277)">
		<stop  offset="0" style="stop-color:#880041"/>
		<stop  offset="1" style="stop-color:#FD916A"/>
	</linearGradient>
	<path class="st7" d="M440,119.8l-12.8,0.1C386.1,93.3,281,49.2,265.7,49.4c-15.3,0.1-118.8,43.9-156.5,72.4l-14.4,0.1L263,39.3
		L440,119.8z"/>
</g>
<linearGradient id="SVGID_6_" gradientUnits="userSpaceOnUse" x1="241.1111" y1="485.5336" x2="292.1276" y2="278.5523" gradientTransform="matrix(1 0 0 -1 0 512)">
	<stop  offset="0" style="stop-color:#E6AD4A"/>
	<stop  offset="1" style="stop-color:#F6C673"/>
</linearGradient>
<polygon class="st8" points="490,118.4 486.9,131.4 472,131.6 399.3,132.8 395.1,132.8 394.7,132.8 368.6,133.3 368.5,133.3 
	346.6,133.6 346.5,133.6 281.8,134.6 182.1,136.2 179.9,136.3 170.6,136.4 170.2,136.4 163.2,136.5 104.7,137.4 104,137.4 96,137.6 
	56.4,138.2 43.9,138.4 38,120.3 58,120.2 70.4,120.2 80,120.1 80.3,120.1 94.5,120 97.2,120 98.5,120 106.4,120 111.7,120 
	169.2,119.7 179,119.7 181.9,119.7 281.8,119.3 292.4,119.2 299.3,119.2 309.8,119.1 315.6,119.1 347.2,119 369.3,118.9 
	396.6,118.8 425.2,118.7 425.5,118.7 437.3,118.6 448.8,118.5 458.6,118.5 471.1,118.5 "/>
<g id="Calque_5">
</g>
<g id="colonne">
	<g>
		
			<linearGradient id="SVGID_7_" gradientUnits="userSpaceOnUse" x1="557.4505" y1="379.1857" x2="-41.5017" y2="286.9361" gradientTransform="matrix(1 0 0 -1 0 512)">
			<stop  offset="0" style="stop-color:#E6AD4A"/>
			<stop  offset="1" style="stop-color:#F6C673"/>
		</linearGradient>
		<path class="st9" d="M455.7,131.9l-0.1,0.7l-2.8,41.9v0l-0.1,1.9l-0.1,0.4c0,0,0,0,0,0l-0.5,8h-4.9l-58.7,0.2l-4.9,0l-20.7,0.1
			h-0.4l-7.6,0h-5.5l-16.2,0.1l-1-7.6l-0.3-1.8l-4.2-32l-2.2-10.6l-0.1-0.5l45.2-0.3h0.6l13.3-0.1l5,0L455.7,131.9z"/>
		
			<linearGradient id="SVGID_8_" gradientUnits="userSpaceOnUse" x1="397.4557" y1="398.499" x2="386.092" y2="339.7407" gradientTransform="matrix(1 0 0 -1 0 512)">
			<stop  offset="0" style="stop-color:#880041"/>
			<stop  offset="1" style="stop-color:#FD916A"/>
		</linearGradient>
		<path class="st10" d="M455.7,131.9l-0.1,0.7l-2.8,41.9v0l-0.1,1.9l-0.1,0.4c0,0,0,0,0,0l-0.5,8l-4.9,0.1v-0.1l-0.1-1.8l-0.5-6.5
			l-0.2-2.3l-2.4-30.8c0,0-17.7-3.5-54.5-3.2c-1.6,0-3.3,0-5,0.1c-7.9,0.1-16.7,0.5-26.3,1c-1.1,0.1-2.3,0.1-3.5,0.2
			c-8.3,0.5-17.3,1.3-26.9,2.2l-2.2-10.6l-0.1-0.5l45.2-0.3h0.6l13.3-0.1l5,0L455.7,131.9z"/>
		
			<linearGradient id="SVGID_9_" gradientUnits="userSpaceOnUse" x1="504.104" y1="234.3171" x2="195.7247" y2="186.821" gradientTransform="matrix(1 0 0 -1 0 512)">
			<stop  offset="0" style="stop-color:#E6AD4A"/>
			<stop  offset="1" style="stop-color:#F6C673"/>
		</linearGradient>
		<path class="st11" d="M432.2,403h-71.4l5.3-204.4l0.2-6.7l0.1-4l0.1-3.2l2.2-0.1l14.9-0.6l4.9-0.2l30.2-1.3l3.2-0.1l0.1,3.2v0
			l0.1,1.5c0,0,0,0,0,0.1v1l0.1,0.4l0.1,3.8l0.2,3.2L432.2,403z"/>
		
			<linearGradient id="SVGID_10_" gradientUnits="userSpaceOnUse" x1="407.771" y1="344.1272" x2="396.0518" y2="171.4445" gradientTransform="matrix(1 0 0 -1 0 512)">
			<stop  offset="0" style="stop-color:#880041"/>
			<stop  offset="1" style="stop-color:#FD916A"/>
		</linearGradient>
		<path class="st12" d="M432.2,403h-3.4l-1.5-0.3l-2.2-0.4l-1-19.4v0l-10-186.3c-2.3-0.8-5.5-1.8-9.6-2.6c-2-0.4-4.1-0.8-6.5-1.1
			c-2.7-0.3-5.7-0.5-8.9-0.6h-0.9c-1.6,0-3.2,0-4.9,0.1c-0.2,0-0.4,0-0.6,0c-3,0.2-6.2,0.6-9.5,1.2h-0.1c-1.4,0.3-2.9,0.6-4.4,0.9
			c-0.9,0.2-1.8,0.4-2.7,0.7l0.2-6.8l0.1-4h1.8l15.3-0.1l4.9,0l31.2-0.2l1.8,0h0.7v0.6l0.1,0.4l0.1,3.8l0.2,3.3L432.2,403z"/>
		
			<linearGradient id="SVGID_11_" gradientUnits="userSpaceOnUse" x1="439.3779" y1="132.613" x2="260.037" y2="7.1975" gradientTransform="matrix(1 0 0 -1 0 512)">
			<stop  offset="0" style="stop-color:#E6AD4A"/>
			<stop  offset="1" style="stop-color:#F6C673"/>
		</linearGradient>
		<polygon class="st13" points="453,415 384.1,414.3 379.3,414.3 339.1,413.9 339.8,409.9 339.9,409.3 341,403 451.6,403 
			452.3,408.7 452.3,409.3 452.9,414 		"/>
	</g>
	<polygon class="st3" points="451.6,403 341,403 361.1,400.3 431.8,400.3 	"/>
</g>
</svg>
